<svg width="48" height="50" viewBox="0 0 48 50" fill="none" xmlns="http://www.w3.org/2000/svg">
<path d="M11.4174 34.8878C13.0995 33.4731 14.0603 30.0782 14.0603 30.0782C14.0603 30.0782 13.0553 21.5126 15.7098 18.142C19.0819 13.8601 23.6994 11.6378 29.1968 15.1178C34.0896 18.2151 33.6174 24.8091 30.9632 28.3846C27.7703 32.6859 24.9678 32.7112 20.437 34.3236C18.8029 36.1138 17.9781 37.0296 17.3517 38.972C16.7811 40.7416 9.55183 36.4567 11.4174 34.8878Z" fill="white" stroke="#111111" stroke-width="0.609449" stroke-linecap="round"/>
<path d="M13.2959 36.2551C16.5117 31.2016 21.6035 20.8898 18.7546 20.3008C17.1267 19.9642 18.9815 23.2474 21.3274 25.1093C22.941 26.3899 28.0096 27.9547 27.2307 26.0442C26.4519 24.1337 20.8044 27.1317 15.3786 37.2963" stroke="#FF9900" stroke-width="1.2189" stroke-linecap="round" stroke-linejoin="round"/>
<path d="M15.6854 41.8291C15.6854 41.8291 11.9551 42.0486 9.21987 37.8475" stroke="black" stroke-width="1.2189" stroke-linecap="round" stroke-linejoin="round"/>
<path d="M17.2298 39.5129C17.2298 39.5129 13.5255 39.6142 10.6917 35.6767" stroke="black" stroke-width="1.2189" stroke-linecap="round" stroke-linejoin="round"/>
<path d="M13.5454 43.9054C13.5454 43.9054 10.36 43.3893 8.32599 40.6889" stroke="black" stroke-width="1.2189" stroke-linecap="round" stroke-linejoin="round"/>
<path d="M29.2031 34.4456L34.8812 42.5003" stroke="#FFB800" stroke-width="1.92003" stroke-linecap="round" stroke-linejoin="round"/>
<path d="M33.4039 29.8077L38.5792 32.8235" stroke="#FFB800" stroke-width="1.92003" stroke-linecap="round" stroke-linejoin="round"/>
<path d="M35.5338 23.9314L44.8414 24.4561" stroke="#FFB800" stroke-width="1.92003" stroke-linecap="round" stroke-linejoin="round"/>
<path d="M16.3932 3.02469L19.5452 11.6169" stroke="#FFB800" stroke-width="1.92003" stroke-linecap="round" stroke-linejoin="round"/>
<path d="M2.03207 16.8097L11.167 20.5547" stroke="#FFB800" stroke-width="1.92003" stroke-linecap="round" stroke-linejoin="round"/>
<path d="M35.4963 16.6993L41.2614 14.4201" stroke="#FFB800" stroke-width="1.92003" stroke-linecap="round" stroke-linejoin="round"/>
<path d="M25.4962 10.2248L25.9936 4.13655" stroke="#FFB800" stroke-width="1.92003" stroke-linecap="round" stroke-linejoin="round"/>
<path d="M14.7758 15.0767C12.8267 13.3654 11.7339 12.406 9.78476 10.6947" stroke="#FFB800" stroke-width="1.92003" stroke-linecap="round" stroke-linejoin="round"/>
<path d="M31.3262 11.9583L37.2843 4.43041" stroke="#FFB800" stroke-width="1.92003" stroke-linecap="round" stroke-linejoin="round"/>
</svg>
