<svg width="22" height="22" viewBox="0 0 22 22" fill="none" xmlns="http://www.w3.org/2000/svg">
<path d="M15.1011 4.95742L17.0426 6.898M16.3496 3.24784L11.0998 8.49759C10.8286 8.76846 10.6436 9.11357 10.5682 9.48942L10.0833 11.9168L12.5106 11.4309C12.8864 11.3558 13.2311 11.1715 13.5024 10.9002L18.7522 5.65042C18.9099 5.49266 19.0351 5.30538 19.1204 5.09926C19.2058 4.89314 19.2498 4.67223 19.2498 4.44913C19.2498 4.22603 19.2058 4.00511 19.1204 3.79899C19.0351 3.59287 18.9099 3.40559 18.7522 3.24784C18.5944 3.09008 18.4071 2.96494 18.201 2.87956C17.9949 2.79419 17.774 2.75024 17.5509 2.75024C17.3278 2.75024 17.1069 2.79419 16.9007 2.87956C16.6946 2.96494 16.5073 3.09008 16.3496 3.24784V3.24784Z" stroke="#505050" stroke-width="2" stroke-linecap="round" stroke-linejoin="round"/>
<path d="M17.4166 13.7502V16.5002C17.4166 16.9864 17.2235 17.4527 16.8797 17.7965C16.5358 18.1403 16.0695 18.3335 15.5833 18.3335H5.49996C5.01373 18.3335 4.54741 18.1403 4.2036 17.7965C3.85978 17.4527 3.66663 16.9864 3.66663 16.5002V6.41683C3.66663 5.9306 3.85978 5.46428 4.2036 5.12047C4.54741 4.77665 5.01373 4.5835 5.49996 4.5835H8.24996" stroke="#505050" stroke-width="2" stroke-linecap="round" stroke-linejoin="round"/>
</svg>
