<svg width="16" height="21" viewBox="0 0 16 21" fill="none" xmlns="http://www.w3.org/2000/svg">
<path d="M8 20.3846C9.1 20.3846 10 19.4846 10 18.3846H6C6 19.4846 6.9 20.3846 8 20.3846ZM14 14.3846V9.38464C14 6.31464 12.37 3.74464 9.5 3.06464V2.38464C9.5 1.55464 8.83 0.884644 8 0.884644C7.17 0.884644 6.5 1.55464 6.5 2.38464V3.06464C3.64 3.74464 2 6.30464 2 9.38464V14.3846L0 16.3846V17.3846H16V16.3846L14 14.3846ZM12 15.3846H4V9.38464C4 6.90464 5.51 4.88464 8 4.88464C10.49 4.88464 12 6.90464 12 9.38464V15.3846Z" fill="currentColor"/>
</svg>
